# xmcd
#
# Track frame offsets:
#	150
#	23155
#	47207
#	70287
#	93070
#	121600
#	152990
#
# Disc length: 2386 seconds
#
# Revision: 1
# Processed by: cddbd v1.4PL0 Copyright (c) Steve Scherf et al.
# Submitted via: audiograbber 1.82.01
#
DISCID=50095007
DTITLE=Ragheb Alameh - Ya Hayati
DYEAR=1900
DGENRE=
TTITLE0=Moghram Ya Leil
TTITLE1=El Mo3adla El So3ba
TTITLE2=Badawar 3al Habib
TTITLE3=Saghir El Sen
TTITLE4=Ya Hayati
TTITLE5=Asef Habibti
TTITLE6=Mahla Hawaki
EXTD=
EXTT0=
EXTT1=
EXTT2=
EXTT3=
EXTT4=
EXTT5=
EXTT6=
PLAYORDER=
